<mxfile host="app.diagrams.net" agent="Mozilla/5.0 (Macintosh; Intel Mac OS X 10_15_7) AppleWebKit/537.36 (KHTML, like Gecko) Chrome/128.0.0.0 Safari/537.36" version="26.0.5">
  <diagram name="Page-1" id="vuPolkmpwVAeLJG7Fil7">
    <mxGraphModel dx="1050" dy="643" grid="1" gridSize="10" guides="1" tooltips="1" connect="1" arrows="1" fold="1" page="1" pageScale="1" pageWidth="850" pageHeight="1100" math="0" shadow="0">
      <root>
        <mxCell id="0" />
        <mxCell id="1" parent="0" />
        <mxCell id="AwXrVmrgnpIwf8PjJh9T-1" value="&lt;font style=&quot;font-size: 10px;&quot;&gt;用户&lt;/font&gt;" style="shape=umlActor;verticalLabelPosition=bottom;verticalAlign=top;html=1;outlineConnect=0;fillColor=none;strokeColor=#007FFF;strokeWidth=2;" vertex="1" parent="1">
          <mxGeometry x="345" y="109" width="30" height="60" as="geometry" />
        </mxCell>
        <mxCell id="AwXrVmrgnpIwf8PjJh9T-2" value="DSL低频阵列大视场干涉&lt;div&gt;成像软件&lt;/div&gt;" style="ellipse;whiteSpace=wrap;html=1;fillColor=#dae8fc;strokeColor=#6c8ebf;" vertex="1" parent="1">
          <mxGeometry x="270" y="249" width="180" height="41" as="geometry" />
        </mxCell>
        <mxCell id="AwXrVmrgnpIwf8PjJh9T-3" value="" style="shape=flexArrow;endArrow=classic;html=1;rounded=0;entryX=0.5;entryY=0;entryDx=0;entryDy=0;" edge="1" parent="1">
          <mxGeometry width="50" height="50" relative="1" as="geometry">
            <mxPoint x="360" y="199" as="sourcePoint" />
            <mxPoint x="360" y="249" as="targetPoint" />
          </mxGeometry>
        </mxCell>
        <mxCell id="AwXrVmrgnpIwf8PjJh9T-4" value="" style="endArrow=classic;html=1;rounded=0;dashed=1;entryX=0.5;entryY=0;entryDx=0;entryDy=0;exitX=0.5;exitY=1;exitDx=0;exitDy=0;" edge="1" parent="1" target="AwXrVmrgnpIwf8PjJh9T-7" source="AwXrVmrgnpIwf8PjJh9T-2">
          <mxGeometry width="50" height="50" relative="1" as="geometry">
            <mxPoint x="570" y="130" as="sourcePoint" />
            <mxPoint x="360" y="440" as="targetPoint" />
          </mxGeometry>
        </mxCell>
        <mxCell id="AwXrVmrgnpIwf8PjJh9T-5" value="调用" style="text;html=1;align=center;verticalAlign=middle;whiteSpace=wrap;rounded=0;" vertex="1" parent="1">
          <mxGeometry x="350" y="199" width="70" height="30" as="geometry" />
        </mxCell>
        <mxCell id="AwXrVmrgnpIwf8PjJh9T-6" value="存储" style="text;html=1;align=center;verticalAlign=middle;whiteSpace=wrap;rounded=0;" vertex="1" parent="1">
          <mxGeometry x="350" y="290" width="60" height="30" as="geometry" />
        </mxCell>
        <mxCell id="AwXrVmrgnpIwf8PjJh9T-7" value="数据管理与用户服务分系统" style="rounded=1;whiteSpace=wrap;html=1;fillColor=#ffe6cc;strokeColor=#d79b00;" vertex="1" parent="1">
          <mxGeometry x="300" y="330" width="120" height="60" as="geometry" />
        </mxCell>
        <mxCell id="AwXrVmrgnpIwf8PjJh9T-8" value="" style="curved=1;endArrow=classic;html=1;rounded=0;exitX=1;exitY=0.5;exitDx=0;exitDy=0;entryX=1;entryY=0.5;entryDx=0;entryDy=0;dashed=1;dashPattern=12 12;" edge="1" parent="1">
          <mxGeometry width="50" height="50" relative="1" as="geometry">
            <mxPoint x="420" y="363" as="sourcePoint" />
            <mxPoint x="450" y="267" as="targetPoint" />
            <Array as="points">
              <mxPoint x="460" y="343" />
              <mxPoint x="460" y="313" />
              <mxPoint x="460" y="333" />
              <mxPoint x="460" y="283" />
            </Array>
          </mxGeometry>
        </mxCell>
        <mxCell id="AwXrVmrgnpIwf8PjJh9T-9" value="输入" style="text;html=1;align=center;verticalAlign=middle;whiteSpace=wrap;rounded=0;" vertex="1" parent="1">
          <mxGeometry x="450" y="300" width="60" height="30" as="geometry" />
        </mxCell>
      </root>
    </mxGraphModel>
  </diagram>
</mxfile>
